<svg xmlns="http://www.w3.org/2000/svg" xmlns:xlink="http://www.w3.org/1999/xlink" id="Layer_1" viewBox="0 0 597.91 133.98" width="597.9099731445312" height="133.97999572753906"><defs><style>.cls-1{clip-path:url(#clippath);}.cls-2{fill:none;}.cls-2,.cls-3,.cls-4,.cls-5,.cls-6,.cls-7,.cls-8,.cls-9{stroke-width:0px;}.cls-3{fill:#30ae2a;}.cls-4{fill:#df3d9d;}.cls-5{fill:#212425;}.cls-6{fill:#d7b200;}.cls-7{fill:#d5120d;}.cls-8{fill:#24ae97;}.cls-9{fill:#595191;}</style><clipPath id="clippath"><rect class="cls-2" x="11.76" y="11.76" width="110.46" height="110.46" rx="5.59" ry="5.59"></rect></clipPath></defs><path class="cls-5" d="M563.02,64.39l33.5-37.68v-.58h-24.19l-26.52,30.94v-30.94h-19.77v81.42h19.77v-34.89l28.15,34.89h23.96v-.58l-34.89-42.57ZM471.25,42.99h15.35c6.86,0,10.82,3.84,10.82,9.54s-3.95,9.65-10.82,9.65h-15.35v-19.19ZM502.07,76.83c9.77-3.84,15.12-12.45,15.12-24.31,0-16.28-10.35-26.4-28.03-26.4h-37.68v81.42h19.77v-28.5h11.63l15.12,28.5h20.94v-.93l-16.87-29.77ZM394.35,79.16l10.12-26.17,10.12,26.17h-20.24ZM411.68,26.12h-14.42l-34.2,80.49v.93h20.35l4.89-12.68h32.33l4.88,12.68h20.36v-.93l-34.2-80.49ZM340.25,26.12l-27.45,40.24-27.45-40.24h-17.21v81.42h19.08v-46.52l23.26,33.26h4.65l23.26-33.26v46.52h19.08V26.12h-17.21ZM238.5,107.54h19.77V26.12h-19.77v81.42ZM227.43,26.12h-62.69v16.86h32.45l-35.01,63.39v1.16h65.25v-16.86h-35.01l35.01-63.39v-1.16Z"></path><g class="cls-1"><rect class="cls-6" x="11.76" y="11.76" width="36.82" height="36.82"></rect><rect class="cls-3" x="85.4" y="85.4" width="36.82" height="36.82"></rect><rect class="cls-7" x="85.4" y="11.76" width="36.82" height="36.82"></rect><rect class="cls-6" x="11.76" y="85.4" width="36.82" height="36.82"></rect><rect class="cls-9" x="48.58" y="48.58" width="36.82" height="36.82"></rect><rect class="cls-7" x="48.58" y="85.4" width="36.82" height="36.82"></rect><rect class="cls-8" x="85.4" y="48.58" width="36.82" height="36.82"></rect><rect class="cls-4" x="11.76" y="48.58" width="36.82" height="36.82"></rect><rect class="cls-3" x="48.58" y="11.76" width="36.82" height="36.82"></rect></g><path class="cls-5" d="M5.9,25.16H0v-9.95C0,6.82,6.82,0,15.21,0h9.95v5.9h-9.95c-5.13,0-9.31,4.18-9.31,9.31v9.95ZM133.98,25.16h-5.9v-9.95c0-5.13-4.18-9.31-9.31-9.31h-9.95V0h9.95c8.39,0,15.21,6.82,15.21,15.21v9.95ZM118.77,133.98h-9.95v-5.9h9.95c5.13,0,9.31-4.18,9.31-9.31v-9.95h5.9v9.95c0,8.38-6.82,15.21-15.21,15.21M25.16,133.98h-9.95c-8.39,0-15.21-6.82-15.21-15.21v-9.95h5.9v9.95c0,5.13,4.18,9.31,9.31,9.31h9.95v5.9Z"></path></svg>