<svg xmlns="http://www.w3.org/2000/svg" viewBox="0 0 134 134" width="134" height="134">
  <defs>
    <clipPath id="cp"><rect x="11.76" y="11.76" width="110.46" height="110.46" rx="5.59" ry="5.59"/></clipPath>
  </defs>
  <g clip-path="url(#cp)">
    <rect fill="#d7b200" x="11.76" y="11.76" width="36.82" height="36.82"/>
    <rect fill="#30ae2a" x="85.4" y="85.4" width="36.82" height="36.82"/>
    <rect fill="#d5120d" x="85.4" y="11.76" width="36.82" height="36.82"/>
    <rect fill="#d7b200" x="11.76" y="85.4" width="36.82" height="36.82"/>
    <rect fill="#595191" x="48.58" y="48.58" width="36.82" height="36.82"/>
    <rect fill="#d5120d" x="48.58" y="85.4" width="36.82" height="36.82"/>
    <rect fill="#24ae97" x="85.4" y="48.58" width="36.82" height="36.82"/>
    <rect fill="#df3d9d" x="11.76" y="48.58" width="36.82" height="36.82"/>
    <rect fill="#30ae2a" x="48.58" y="11.76" width="36.82" height="36.82"/>
  </g>
  <path fill="#212425" d="M5.9,25.16H0v-9.95C0,6.82,6.82,0,15.21,0h9.95v5.9h-9.95c-5.13,0-9.31,4.18-9.31,9.31v9.95ZM133.98,25.16h-5.9v-9.95c0-5.13-4.18-9.31-9.31-9.31h-9.95V0h9.95c8.39,0,15.21,6.82,15.21,15.21v9.95ZM118.77,133.98h-9.95v-5.9h9.95c5.13,0,9.31-4.18,9.31-9.31v-9.95h5.9v9.95c0,8.38-6.82,15.21-15.21,15.21M25.16,133.98h-9.95c-8.39,0-15.21-6.82-15.21-15.21v-9.95h5.9v9.95c0,5.13,4.18,9.31,9.31,9.31h9.95v5.9Z"/>
</svg>
